<?xml version="1.0" encoding="UTF-8"?>
<!-- Generated by Pixelmator Pro 3.7.1 -->
<svg width="1350" height="273" viewBox="0 0 1350 273" xmlns="http://www.w3.org/2000/svg">
    <g id="civic-wordmark-option-c">
        <g id="Group">
            <path id="Path" fill="#1b2b4b" stroke="none" d="M 270 138 C 270 212.558441 209.558441 273 135 273 C 60.441559 273 0 212.558441 0 138 C 0 63.441559 60.441559 3 135 3 C 209.558441 3 270 63.441559 270 138 Z"/>
            <path id="path1" fill="none" stroke="#ffffff" stroke-width="30" stroke-linecap="round" d="M 180 63 C 144.664886 45.177658 101.682686 54.436432 76.819115 85.226212 C 51.955547 116.015945 51.955547 159.984055 76.819115 190.773804 C 101.682686 221.563538 144.664886 230.822342 180 213"/>
        </g>
        <g id="g1">
            <path id="path2" fill="#1b2b4b" stroke="none" d="M 540 138 C 540 212.558441 479.558441 273 405 273 C 330.441559 273 270 212.558441 270 138 C 270 63.441559 330.441559 3 405 3 C 479.558441 3 540 63.441559 540 138 Z"/>
            <text id="text1" transform="matrix(-1 0 -0 -1 807 279)" xml:space="preserve" x="364" y="222" font-family="Arial Rounded MT Bold" font-size="225" fill="#ffffff">!</text>
        </g>
        <g id="g2">
            <path id="path3" fill="#1b2b4b" stroke="none" d="M 810 138 C 810 212.558441 749.558472 273 675 273 C 600.441528 273 540 212.558441 540 138 C 540 63.441559 600.441528 3 675 3 C 749.558472 3 810 63.441559 810 138 Z"/>
            <path id="Path-copy" fill="none" stroke="#ffffff" stroke-width="30" stroke-linecap="round" stroke-linejoin="round" d="M 600 105 L 675 195 L 750 105"/>
        </g>
        <g id="g3">
            <path id="path4" fill="#1b2b4b" stroke="none" d="M 1080 138 C 1080 212.558441 1019.558472 273 945 273 C 870.441528 273 810 212.558441 810 138 C 810 63.441559 870.441528 3 945 3 C 1019.558472 3 1080 63.441559 1080 138 Z"/>
            <text id="text2" xml:space="preserve" x="904" y="213" font-family="Arial Rounded MT Bold" font-size="225" fill="#ffffff">!</text>
        </g>
        <g id="g4">
            <path id="path5" fill="#1b2b4b" stroke="none" d="M 1155 249 L 1080 270 L 1110 210 L 1155 249 Z"/>
            <path id="path6" fill="#1b2b4b" stroke="none" d="M 1350 135 C 1350 209.558441 1289.558472 270 1215 270 C 1140.441528 270 1080 209.558441 1080 135 C 1080 60.441559 1140.441528 0 1215 0 C 1289.558472 0 1350 60.441559 1350 135 Z"/>
            <path id="path7" fill="#ffffff" stroke="none" d="M 1278 151.909286 C 1278 171.000122 1262.537231 186.46286 1243.446411 186.46286 L 1241.142822 186.46286 C 1236.046143 186.46286 1231.928589 182.34523 1231.928589 177.248566 C 1231.928589 172.151917 1236.046143 168.034286 1241.142822 168.034286 L 1243.446411 168.034286 C 1252.343994 168.034286 1259.571411 160.806824 1259.571411 151.909286 L 1259.571411 149.605713 L 1241.142822 149.605713 C 1230.978394 149.605713 1222.714233 141.341644 1222.714233 131.177155 L 1222.714233 112.748581 C 1222.714233 102.584061 1230.978394 94.320007 1241.142822 94.320007 L 1259.571411 94.320007 C 1269.735962 94.320007 1278 102.584061 1278 112.748581 L 1278 151.909286 Z M 1204.285767 151.909286 C 1204.285767 171.000122 1188.822998 186.46286 1169.732178 186.46286 L 1167.428589 186.46286 C 1162.331909 186.46286 1158.214233 182.34523 1158.214233 177.248566 C 1158.214233 172.151917 1162.331909 168.034286 1167.428589 168.034286 L 1169.732178 168.034286 C 1178.629639 168.034286 1185.857178 160.806824 1185.857178 151.909286 L 1185.857178 149.605713 L 1167.428589 149.605713 C 1157.264038 149.605713 1149 141.341644 1149 131.177155 L 1149 112.748581 C 1149 102.584061 1157.264038 94.320007 1167.428589 94.320007 L 1185.857178 94.320007 C 1196.021606 94.320007 1204.285767 102.584061 1204.285767 112.748581 L 1204.285767 151.909286 Z"/>
        </g>
    </g>
</svg>
