<?xml version="1.0" encoding="UTF-8"?>
<!-- Generated by Pixelmator Pro 3.7.1 -->
<svg width="270" height="270" viewBox="0 0 270 270" xmlns="http://www.w3.org/2000/svg">
    <g id="civic-wordmark-option-c">
        <g id="Group">
            <path id="Path" fill="#1b2b4b" stroke="none" d="M 75 249 L 0 270 L 30 210 L 75 249 Z"/>
            <path id="Path-copy" fill="#1b2b4b" stroke="none" d="M 270 135 C 270 209.558441 209.558441 270 135 270 C 60.441559 270 0 209.558441 0 135 C 0 60.441559 60.441559 0 135 0 C 209.558441 0 270 60.441559 270 135 Z"/>
            <path id="path1" fill="#ffffff" stroke="none" d="M 198 151.909286 C 198 171.000122 182.537262 186.46286 163.446426 186.46286 L 161.142853 186.46286 C 156.046204 186.46286 151.928574 182.34523 151.928574 177.248566 C 151.928574 172.151917 156.046204 168.034286 161.142853 168.034286 L 163.446426 168.034286 C 172.343979 168.034286 179.571426 160.806824 179.571426 151.909286 L 179.571426 149.605713 L 161.142853 149.605713 C 150.978348 149.605713 142.714279 141.341644 142.714279 131.177155 L 142.714279 112.748581 C 142.714279 102.584061 150.978348 94.320007 161.142853 94.320007 L 179.571426 94.320007 C 189.735931 94.320007 198 102.584061 198 112.748581 L 198 151.909286 Z M 124.285713 151.909286 C 124.285713 171.000122 108.82299 186.46286 89.73214 186.46286 L 87.428566 186.46286 C 82.331917 186.46286 78.214287 182.34523 78.214287 177.248566 C 78.214287 172.151917 82.331917 168.034286 87.428566 168.034286 L 89.73214 168.034286 C 98.629684 168.034286 105.85714 160.806824 105.85714 151.909286 L 105.85714 149.605713 L 87.428566 149.605713 C 77.264061 149.605713 69 141.341644 69 131.177155 L 69 112.748581 C 69 102.584061 77.264061 94.320007 87.428566 94.320007 L 105.85714 94.320007 C 116.021652 94.320007 124.285713 102.584061 124.285713 112.748581 L 124.285713 151.909286 Z"/>
        </g>
    </g>
</svg>
